<?xml version="1.0" encoding="UTF-8" standalone="no"?>
<!-- Created with Inkscape (http://www.inkscape.org/) -->

<svg
   xmlns:dc="http://purl.org/dc/elements/1.1/"
   xmlns:cc="http://creativecommons.org/ns#"
   xmlns:rdf="http://www.w3.org/1999/02/22-rdf-syntax-ns#"
   xmlns:svg="http://www.w3.org/2000/svg"
   xmlns="http://www.w3.org/2000/svg"
   xmlns:sodipodi="http://sodipodi.sourceforge.net/DTD/sodipodi-0.dtd"
   xmlns:inkscape="http://www.inkscape.org/namespaces/inkscape"
   id="svg4136"
   version="1.1"
   inkscape:version="0.91 r13725"
   width="241.21402"
   height="241.88496"
   viewBox="0 0 241.21402 241.88496"
   sodipodi:docname="Twilight.svg">
  <metadata
     id="metadata4142">
    <rdf:RDF>
      <cc:Work
         rdf:about="">
        <dc:format>image/svg+xml</dc:format>
        <dc:type
           rdf:resource="http://purl.org/dc/dcmitype/StillImage" />
        <dc:title></dc:title>
      </cc:Work>
    </rdf:RDF>
  </metadata>
  <defs
     id="defs4140" />
  <sodipodi:namedview
     pagecolor="#ffffff"
     bordercolor="#666666"
     borderopacity="1"
     objecttolerance="10"
     gridtolerance="10"
     guidetolerance="10"
     inkscape:pageopacity="0"
     inkscape:pageshadow="2"
     inkscape:window-width="1920"
     inkscape:window-height="1028"
     id="namedview4138"
     showgrid="false"
     fit-margin-top="0"
     fit-margin-left="0"
     fit-margin-right="0"
     fit-margin-bottom="0"
     inkscape:zoom="1.156"
     inkscape:cx="105.55836"
     inkscape:cy="120.77233"
     inkscape:window-x="1912"
     inkscape:window-y="-8"
     inkscape:window-maximized="1"
     inkscape:current-layer="svg4136" />
  <path
     style="fill:#000000"
     d="M 105.69677,241.04389 C 88.482021,238.96814 66.712701,230.73533 51.946769,220.71652 43.672859,215.10258 28.699378,200.32623 22.581288,191.73763 -9.9042915,146.13423 -7.0853124,84.087754 29.396289,41.737633 35.483278,34.671477 49.4274,22.385699 51.321769,22.419703 c 0.6875,0.01238 0.158115,0.848299 -1.176412,1.857684 -1.334527,1.009386 -1.789599,1.835246 -1.011272,1.835246 1.500541,0 3.38656,-2.356229 3.418543,-4.270834 0.0105,-0.630207 0.800563,-1.406307 1.755636,-1.724665 1.157546,-0.385849 1.405717,-0.04363 0.744364,1.02647 -0.655395,1.060451 -0.495401,1.298305 0.471395,0.700791 0.80494,-0.49748 1.167425,-1.383611 0.805522,-1.96918 -1.381914,-2.235983 27.380609,-15.8831206 30.96025,-14.6899067 0.698071,0.2326904 -1.117047,1.1380175 -4.033598,2.0118365 -9.443581,2.8293662 -4.756789,2.457796 6.815572,-0.54034 6.1875,-1.6030405 13.218751,-2.8932916 15.625001,-2.8672245 2.68093,0.029043 0.6937,0.7138658 -5.13207,1.7685777 -43.417565,7.860423 -79.969967,40.621347 -92.4864473,82.89309 -1.326753,4.480823 -1.801283,5.042946 -2.6380471,3.125 -0.6499478,-1.489745 -0.7992601,-0.523715 -0.4113517,2.661385 0.3933679,3.22993 0.2494055,4.13352 -0.4066562,2.55243 -1.3081423,-3.152594 -2.6492255,7.276517 -2.6645639,20.721327 -0.063143,55.34689 36.6436692,102.76655 91.0561142,117.63078 14.634502,3.99781 40.377722,3.73726 56.506322,-0.57189 30.08442,-8.03781 56.36307,-27.59812 71.40681,-53.15115 11.43486,-19.42303 16.29611,-36.26326 16.50656,-57.1815 0.14419,-14.33246 -2.50579,-33.569738 -4.4581,-32.363144 -0.62223,0.384558 -0.79621,-0.627418 -0.3877,-2.255073 0.94583,-3.768482 -4.83227,-20.23536 -10.88005,-31.00678 -5.06855,-9.027366 -14.91766,-20.845814 -23.5509,-28.259912 -8.76513,-7.527373 -22.1539,-15.826762 -23.84552,-14.781286 -1.01903,0.629794 -1.17227,0.39611 -0.47747,-0.728089 0.74437,-1.204438 0.45236,-1.436512 -1.07168,-0.851683 -2.95367,1.133428 -8.91865,-1.682245 -6.78822,-3.204269 1.11815,-0.7988262 0.82906,-0.9763072 -0.96274,-0.591062 -1.4084,0.302811 -7.5959,-0.7442442 -13.75,-2.3267902 -6.15412,-1.582546 -13.11117,-2.9065056 -15.46013,-2.9421326 -6.27704,-0.095205 -4.29326,-0.8685774 4.27084,-1.6649823 5.22246,-0.4856545 6.55102,-0.3546059 4.375,0.4315464 -2.45176,0.8857705 -1.99195,0.9972714 2.13432,0.5175586 3.85629,-0.4483237 7.96908,0.3774924 15.41682,3.0955829 39.30768,14.3455302 67.75411,46.8420342 77.06416,88.0362352 2.90149,12.83823 2.86244,38.60694 -0.0779,51.39428 -7.24808,31.52154 -25.00641,57.46595 -51.31669,74.97221 -23.51752,15.64801 -53.6324,22.75108 -81.97071,19.33405 z M 15.038699,67.362633 c 6.084347,-11.937219 13.229722,-21.558313 23.666715,-31.86672 5.563995,-5.495446 7.759177,-8.146546 4.878183,-5.891331 -6.765164,5.2957 -15.654743,15.208302 -21.957604,24.48451 -6.015289,8.852975 -14.4300823,26.46246 -15.4005883,32.228535 -0.399887,2.375846 0.591261,0.674195 2.303635,-3.954994 1.6530273,-4.46875 4.5823733,-11.21875 6.5096593,-15 z M 76.405874,10.155071 c -0.556958,-0.5569572 -18.209105,8.253113 -18.209105,9.088043 0,0.32948 4.19895,-1.478642 9.330999,-4.018049 5.13205,-2.539405 9.127197,-4.820903 8.878106,-5.069995 z m 94.290896,2.207562 c -1.03125,-0.666445 -2.4375,-1.211718 -3.125,-1.211718 -0.6875,0 -0.40625,0.545273 0.625,1.211718 1.03125,0.666445 2.4375,1.211717 3.125,1.211717 0.6875,0 0.40625,-0.545272 -0.625,-1.211717 z M 159.62629,7.8278198 c -2.30751,-1.006983 -5.96376,-2.1014225 -8.125,-2.4320876 -2.31578,-0.35431 -1.10616,0.3867917 2.94548,1.8046096 8.15775,2.8547042 11.10004,3.2111492 5.17952,0.627478 z M 99.412919,232.95815 c -10.923864,-1.70367 -22.012053,-5.40956 -26.700528,-8.92383 -2.468732,-1.85045 -2.477886,-1.91833 -0.140622,-1.04259 20.199677,7.56849 34.038111,9.93239 52.500001,8.96816 20.69747,-1.081 39.04109,-6.95331 56.25,-18.00722 12.68051,-8.14515 28.61387,-24.97545 36.76849,-38.83829 7.16576,-12.18179 9.49998,-14.26779 5.27321,-4.71248 -4.17996,9.44952 -14.85565,23.84743 -24.41555,32.9284 -27.00418,25.65133 -60.70701,35.6834 -99.535001,29.62785 z m 26.153891,-19.42358 c 26.66066,-3.04352 44.6735,-11.63663 61.01796,-29.1089 12.23119,-13.07519 19.46449,-27.95302 21.66561,-44.56304 l 1.07671,-8.125 -0.54148,9.59607 c -1.45855,25.84763 -20.32719,51.40708 -47.46384,64.2945 -11.57474,5.49694 -20.94451,7.78704 -34.8145,8.50912 l -11.4355,0.59532 10.49504,-1.19807 z m -27.048791,-1.9304 c -6.067496,-1.64913 -16.828723,-6.80555 -19.65662,-9.41879 -0.665704,-0.61516 3.271796,0.81911 8.75,3.18729 5.478204,2.36817 13.897871,5.1451 18.710371,6.17096 7.23694,1.54265 7.88539,1.86316 3.75,1.85351 -2.75,-0.006 -7.94919,-0.81326 -11.553751,-1.79297 z m 4.678751,-4.77587 c -14.253047,-3.0216 -32.353163,-11.66945 -30.545657,-14.59406 0.460936,-0.7458 -0.166144,-1.12192 -1.488352,-0.89271 -1.256688,0.21785 -2.345696,-0.1664 -2.420017,-0.8539 -0.07433,-0.6875 -4.340132,-5.51126 -9.479579,-10.71949 -7.709181,-7.81234 -10.591944,-11.96855 -16.473032,-23.75 -7.711997,-15.44925 -10.634384,-24.89556 -9.830954,-31.77754 l 0.511105,-4.37797 85.738246,0 c 68.59079,0 85.42567,-0.3125 84.17536,-1.5625 -1.21858,-1.21831 -19.66575,-1.5625 -83.74297,-1.5625 -76.568859,0 -82.411045,0.15133 -85.562136,2.21632 -4.005197,2.62471 -4.506941,1.0642 -0.750792,-2.33508 2.5314,-2.2909 5.720507,-2.38031 84.062498,-2.35667 44.78721,0.0135 82.96959,0.44396 84.84974,0.95654 4.20728,1.14701 5.3409,4.93013 3.69126,12.31834 l -1.217,5.45055 -0.13386,-4.6875 -0.13386,-4.6875 -83.9221,0 -83.922105,0 0.802414,6.82729 c 2.762617,23.50556 16.498616,46.13819 36.204449,59.6536 9.051314,6.20791 15.746255,9.20327 27.389042,12.254 6.5802,1.7242 8.0429,2.43586 5.3233,2.59003 -3.42093,0.19393 -3.31124,0.30333 1.25,1.24679 6.32246,1.30775 17.23389,1.43669 25.13804,0.29705 5.80422,-0.83687 5.92315,-0.92904 2.36196,-1.83031 -3.0685,-0.77657 -2.83679,-0.84926 1.27496,-0.39996 2.76374,0.30201 6.70124,0.005 8.75,-0.6609 3.43208,-1.11485 3.3318,-1.16273 -1.27496,-0.60874 -4.2133,0.50668 -3.67845,0.13415 3.39928,-2.3676 4.61958,-1.63289 10.90726,-4.43866 13.97258,-6.23506 6.20519,-3.63649 7.57928,-4.01096 6.2515,-1.70369 -0.52241,0.9078 -0.42238,1.12604 0.23873,0.52084 0.62585,-0.57293 1.16063,-1.41668 1.18841,-1.875 0.066,-1.08815 20.94469,-21.96689 22.03284,-22.03284 0.45832,-0.0277 1.30207,-0.56256 1.875,-1.18841 0.615,-0.67181 0.33524,-0.72855 -0.683,-0.1385 -2.00796,1.16356 -2.02563,1.21141 3.39153,-9.18943 2.28192,-4.38121 5.20003,-11.97496 6.4847,-16.875 1.71019,-6.52305 2.39382,-7.90481 2.55249,-5.15916 l 0.21673,3.75 0.95421,-3.75 c 0.7456,-2.93015 0.98655,-3.14921 1.10211,-1.00202 0.0814,1.51138 -1.24397,7.13638 -2.94512,12.5 -8.36811,26.38397 -29.01291,46.97725 -56.16731,56.02713 -12.22572,4.07454 -31.99442,5.21453 -44.48968,2.56557 z m -8.324342,-4.97648 c -4.922138,-1.59443 -11.617053,-4.38998 -14.877588,-6.21233 -3.260535,-1.82234 -6.126775,-3.11482 -6.369421,-2.87217 -1.492676,1.49267 22.57544,11.87552 27.696351,11.94805 1.375,0.0195 -1.527201,-1.26913 -6.449342,-2.86355 z m 64.886842,-4.04713 c 3.26562,-1.6413 5.9375,-3.2264 5.9375,-3.52245 0,-0.54644 -16.35279,6.75549 -17.5,7.81418 -1.34206,1.23851 5.92892,-1.46032 11.5625,-4.29173 z m 20.11602,-14.15604 c 1.95444,-1.73856 5.24829,-5.41102 7.31968,-8.16102 3.67457,-4.87845 3.6462,-4.86601 -1.1673,0.51124 -2.71339,3.03117 -7.15698,7.53117 -9.87465,10 -2.71768,2.46882 -3.79148,3.66122 -2.38624,2.64978 1.40525,-1.01143 4.15408,-3.26143 6.10851,-5 z m 18.98677,-26.59852 c 2.36063,-4.98438 4.60255,-11.03125 4.98201,-13.4375 0.4847,-3.07348 -0.005,-2.32975 -1.64619,2.5 -1.28487,3.78125 -3.84523,9.82812 -5.68968,13.4375 -1.84445,3.60937 -3.03509,6.5625 -2.64588,6.5625 0.38923,0 2.6391,-4.07813 4.99974,-9.0625 z m -82.85279,48.15191 c 2.57813,-0.26967 6.79688,-0.26967 9.375,0 2.57812,0.26969 0.46875,0.49033 -4.6875,0.49033 -5.15625,0 -7.26562,-0.22064 -4.6875,-0.49033 z m -48.496117,-6.04025 c -15.242018,-9.9975 -22.638082,-18.92686 -27.488228,-33.18689 -1.692986,-4.97758 -3.076871,-9.37351 -3.075301,-9.76871 0.0016,-0.39521 2.81133,4.28843 6.243913,10.40809 8.428346,15.02618 14.811488,23.01962 24.09049,30.16795 13.292402,10.24015 13.365154,10.99573 0.229126,2.37956 z m -37.077947,-7.73666 c -6.509287,-6.92898 -19.642503,-29.5751 -18.065885,-31.15173 0.250453,-0.25045 2.312168,3.0703 4.581588,7.37943 2.26942,4.30914 7.103494,12.19417 10.742386,17.5223 3.638893,5.32812 6.471052,9.6875 6.293685,9.6875 -0.177366,0 -1.775664,-1.54688 -3.551773,-3.4375 z m -1.326978,-56.06771 c -0.501303,-0.5013 -0.875804,-2.36458 -0.832226,-4.14063 l 0.07924,-3.22916 1.206468,3.0179 c 1.300129,3.25219 1.030867,5.83624 -0.453476,4.35189 z M 8.7913487,91.198852 C 11.996631,82.114114 20.419965,66.193206 26.620426,57.500188 46.584234,29.511019 78.966118,10.94057 110.69677,9.2838618 l 10.625,-0.554748 -9.375,1.176559 C 98.777719,11.558386 82.398272,16.479127 71.01879,22.201331 46.2687,34.64698 28.328909,53.94248 13.85065,83.689659 7.4202857,96.901553 6.0746527,98.898793 8.7913487,91.198852 Z M 223.76694,73.930398 C 214.60053,56.747762 189.97275,33.435853 168.95739,22.04935 c -9.82082,-5.321103 -7.01511,-5.091633 5.26014,0.430208 17.89438,8.049524 34.6948,22.485878 45.34568,38.964854 4.52357,6.99884 8.19538,15.523064 7.14082,16.577627 -0.27055,0.270545 -1.59224,-1.570692 -2.93709,-4.091641 z M 140.38427,10.284782 c 0.85937,-0.3467652 2.26562,-0.3467652 3.125,0 0.85937,0.346766 0.15625,0.630482 -1.5625,0.630482 -1.71875,0 -2.42188,-0.283716 -1.5625,-0.630482 z m -11.875,-1.3174662 c 1.89062,-0.286407 4.98437,-0.286407 6.875,0 1.89062,0.286405 0.34375,0.520737 -3.4375,0.520737 -3.78125,0 -5.32813,-0.234333 -3.4375,-0.520737 z M 90.462394,4.0087403 c 0.902344,-0.3610882 1.980469,-0.3166804 2.395834,0.098684 0.415364,0.4153646 -0.322918,0.7108005 -1.640625,0.6565241 -1.456179,-0.059979 -1.752375,-0.356175 -0.755209,-0.7552079 z m 4.921875,-1.2239584 c 0.85938,-0.3467653 2.26563,-0.3467653 3.125,0 0.85938,0.3467654 0.15625,0.6304825 -1.5625,0.6304825 -1.71875,0 -2.421875,-0.2837171 -1.5625,-0.6304825 z m 20.000001,-0.087405 c 2.92188,-0.2631685 7.70313,-0.2631685 10.625,0 2.92187,0.2631686 0.53125,0.4784884 -5.3125,0.4784884 -5.84375,0 -8.23437,-0.2153198 -5.3125,-0.4784884 z m -13.125,-1.196401 c 1.20313,-0.3144095 3.17188,-0.3144095 4.375,0 1.20313,0.3144094 0.21875,0.5716535 -2.1875,0.5716535 -2.40625,0 -3.39062,-0.2572441 -2.1875,-0.5716535 z m 32.5,0 c 1.20312,-0.3144095 3.17187,-0.3144095 4.375,0 1.20312,0.3144094 0.21875,0.5716535 -2.1875,0.5716535 -2.40625,0 -3.39063,-0.2572441 -2.1875,-0.5716535 z m -19.375,-1.30359952 c 2.92188,-0.2631685 7.70313,-0.2631685 10.625,0 2.92187,0.2631686 0.53125,0.4784884 -5.3125,0.4784884 -5.84375,0 -8.23437,-0.2153198 -5.3125,-0.4784884 z"
     id="path4146"
     inkscape:connector-curvature="0" />
</svg>
